<!-- Generated by IcoMoon.io -->
<svg version="1.1" xmlns="http://www.w3.org/2000/svg" width="24" height="24" viewBox="0 0 24 24">
    <path fill="#d7dae0"
        d="M23.333 11.233c-1.058-5.911-3.425-7.655-4.684-7.655-1.964 0-2.468 1.46-6.649 1.51-4.181-0.049-4.685-1.51-6.649-1.51-1.259 0-3.626 1.744-4.685 7.655-0.604 3.374-1.259 8.412 0.302 9.017 1.943 0.752 2.602-1.129 4.735-2.719 2.166-1.612 3.205-1.991 6.296-1.991s4.13 0.379 6.296 1.991c2.134 1.589 2.792 3.472 4.735 2.719 1.561-0.605 0.906-5.641 0.301-9.017zM7.2 12c-1.326 0-2.4-1.075-2.4-2.4 0-1.326 1.074-2.4 2.4-2.4s2.4 1.074 2.4 2.4c0 1.325-1.075 2.4-2.4 2.4zM15.6 12c-0.664 0-1.2-0.536-1.2-1.2s0.536-1.2 1.2-1.2c0.664 0 1.2 0.536 1.2 1.2s-0.536 1.2-1.2 1.2zM18 9.6c-0.664 0-1.2-0.536-1.2-1.2s0.536-1.2 1.2-1.2c0.664 0 1.2 0.536 1.2 1.2s-0.536 1.2-1.2 1.2z"></path>
</svg>